<?xml version="1.0" encoding="UTF-8" standalone="no"?>
<!DOCTYPE svg PUBLIC "-//W3C//DTD SVG 1.1//EN"
 "http://www.w3.org/Graphics/SVG/1.1/DTD/svg11.dtd">
<!-- Generated by graphviz version 12.1.2 (0)
 -->
<!-- Title: ER Pages: 1 -->
<svg width="1959pt" height="1162pt"
 viewBox="0.00 0.00 1959.50 1162.30" xmlns="http://www.w3.org/2000/svg" xmlns:xlink="http://www.w3.org/1999/xlink">
<g id="graph0" class="graph" transform="scale(1 1) rotate(0) translate(4 1158.3)">
<title>ER</title>
<polygon fill="white" stroke="none" points="-4,4 -4,-1158.3 1955.5,-1158.3 1955.5,4 -4,4"/>
<!-- missione -->
<g id="node1" class="node">
<title>missione</title>
<polygon fill="lightblue" stroke="lightblue" points="467.99,-605.35 388.99,-605.35 388.99,-569.35 467.99,-569.35 467.99,-605.35"/>
<text text-anchor="middle" x="428.49" y="-582.68" font-family="Times,serif" font-size="14.00">missione</text>
</g>
<!-- missione_codice -->
<g id="node2" class="node">
<title>missione_codice</title>
<ellipse fill="none" stroke="black" cx="505.51" cy="-473.94" rx="42.79" ry="18"/>
<text text-anchor="middle" x="505.51" y="-469.27" font-family="Times,serif" font-size="14.00">codice</text>
</g>
<!-- missione&#45;&#45;missione_codice -->
<g id="edge1" class="edge">
<title>missione&#45;&#45;missione_codice</title>
<path fill="none" stroke="black" d="M441.04,-568.88C455.53,-547.54 479.21,-512.68 493.48,-491.66"/>
</g>
<!-- missione_obbiettivo -->
<g id="node3" class="node">
<title>missione_obbiettivo</title>
<ellipse fill="none" stroke="black" cx="357.4" cy="-543.35" rx="61.73" ry="18"/>
<text text-anchor="middle" x="357.4" y="-538.67" font-family="Times,serif" font-size="14.00">obbiettivo</text>
</g>
<!-- missione&#45;&#45;missione_obbiettivo -->
<g id="edge2" class="edge">
<title>missione&#45;&#45;missione_obbiettivo</title>
<path fill="none" stroke="black" d="M398.75,-568.94C393.88,-565.93 388.86,-562.82 384.07,-559.86"/>
</g>
<!-- missione_statoattuale -->
<g id="node4" class="node">
<title>missione_statoattuale</title>
<ellipse fill="none" stroke="black" cx="419.62" cy="-668.17" rx="72.25" ry="18"/>
<text text-anchor="middle" x="419.62" y="-663.5" font-family="Times,serif" font-size="14.00">statoAttuale</text>
</g>
<!-- missione&#45;&#45;missione_statoattuale -->
<g id="edge3" class="edge">
<title>missione&#45;&#45;missione_statoattuale</title>
<path fill="none" stroke="black" d="M426.48,-605.69C425.03,-618.92 423.07,-636.7 421.62,-649.91"/>
</g>
<!-- missione_dataFine -->
<g id="node5" class="node">
<title>missione_dataFine</title>
<ellipse fill="none" stroke="black" cx="511.95" cy="-522.72" rx="55.42" ry="18"/>
<text text-anchor="middle" x="511.95" y="-518.05" font-family="Times,serif" font-size="14.00">dataFine</text>
</g>
<!-- missione&#45;&#45;missione_dataFine -->
<g id="edge4" class="edge">
<title>missione&#45;&#45;missione_dataFine</title>
<path fill="none" stroke="black" d="M452.18,-569C464.14,-559.75 478.53,-548.6 490.2,-539.57"/>
</g>
<!-- missione_dataInizio -->
<g id="node6" class="node">
<title>missione_dataInizio</title>
<ellipse fill="none" stroke="black" cx="314.5" cy="-605.42" rx="60.68" ry="18"/>
<text text-anchor="middle" x="314.5" y="-600.75" font-family="Times,serif" font-size="14.00">dataInizio</text>
</g>
<!-- missione&#45;&#45;missione_dataInizio -->
<g id="edge5" class="edge">
<title>missione&#45;&#45;missione_dataInizio</title>
<path fill="none" stroke="black" d="M388.62,-593.67C382.07,-594.71 375.19,-595.8 368.37,-596.88"/>
</g>
<!-- Resoconto -->
<g id="node44" class="node">
<title>Resoconto</title>
<polygon fill="lightgray" stroke="lightgray" points="478.77,-735.69 389.99,-717.69 478.77,-699.69 567.56,-717.69 478.77,-735.69"/>
<text text-anchor="middle" x="478.77" y="-713.02" font-family="Times,serif" font-size="14.00">Resoconto</text>
</g>
<!-- missione&#45;&#45;Resoconto -->
<g id="edge36" class="edge">
<title>missione&#45;&#45;Resoconto</title>
<path fill="none" stroke="black" d="M435.59,-605.75C445.34,-631.01 462.73,-676.09 472.19,-700.63"/>
<text text-anchor="middle" x="435.89" y="-639.89" font-family="Times,serif" font-size="14.00">(1,N)</text>
</g>
<!-- Partecipazione -->
<g id="node46" class="node">
<title>Partecipazione</title>
<polygon fill="lightgray" stroke="lightgray" points="596.15,-635.52 476.11,-617.52 596.15,-599.52 716.18,-617.52 596.15,-635.52"/>
<text text-anchor="middle" x="596.15" y="-612.84" font-family="Times,serif" font-size="14.00">Partecipazione</text>
</g>
<!-- missione&#45;&#45;Partecipazione -->
<g id="edge40" class="edge">
<title>missione&#45;&#45;Partecipazione</title>
<path fill="none" stroke="black" d="M468.22,-594.5C489.72,-598.37 516.63,-603.21 540.21,-607.45"/>
<text text-anchor="middle" x="486.22" y="-587.68" font-family="Times,serif" font-size="14.00">(1,N)</text>
</g>
<!-- Risorsa_1 -->
<g id="node48" class="node">
<title>Risorsa_1</title>
<polygon fill="lightgray" stroke="lightgray" points="370.39,-449.29 286.07,-431.29 370.39,-413.29 454.71,-431.29 370.39,-449.29"/>
<text text-anchor="middle" x="370.39" y="-426.62" font-family="Times,serif" font-size="14.00">Risorsa_1</text>
</g>
<!-- missione&#45;&#45;Risorsa_1 -->
<g id="edge44" class="edge">
<title>missione&#45;&#45;Risorsa_1</title>
<path fill="none" stroke="black" d="M421.71,-569.14C410.4,-538.75 387.82,-478.1 376.77,-448.43"/>
<text text-anchor="middle" x="381.24" y="-495.49" font-family="Times,serif" font-size="14.00">(1,N)</text>
</g>
<!-- Risorsa_2 -->
<g id="node49" class="node">
<title>Risorsa_2</title>
<polygon fill="lightgray" stroke="lightgray" points="259.83,-730.21 175.5,-712.21 259.83,-694.21 344.15,-712.21 259.83,-730.21"/>
<text text-anchor="middle" x="259.83" y="-707.54" font-family="Times,serif" font-size="14.00">Risorsa_2</text>
</g>
<!-- missione&#45;&#45;Risorsa_2 -->
<g id="edge46" class="edge">
<title>missione&#45;&#45;Risorsa_2</title>
<path fill="none" stroke="black" d="M403.61,-605.77C369.7,-630.87 309.71,-675.28 279.05,-697.98"/>
<text text-anchor="middle" x="323.33" y="-655.83" font-family="Times,serif" font-size="14.00">(1,N)</text>
</g>
<!-- membro -->
<g id="node7" class="node">
<title>membro</title>
<polygon fill="lightblue" stroke="lightblue" points="776.02,-679.57 700.77,-679.57 700.77,-643.57 776.02,-643.57 776.02,-679.57"/>
<text text-anchor="middle" x="738.39" y="-656.9" font-family="Times,serif" font-size="14.00">membro</text>
</g>
<!-- membro_codice -->
<g id="node8" class="node">
<title>membro_codice</title>
<ellipse fill="none" stroke="black" cx="826.89" cy="-637.16" rx="42.79" ry="18"/>
<text text-anchor="middle" x="826.89" y="-632.48" font-family="Times,serif" font-size="14.00">codice</text>
</g>
<!-- membro&#45;&#45;membro_codice -->
<g id="edge6" class="edge">
<title>membro&#45;&#45;membro_codice</title>
<path fill="none" stroke="black" d="M776.44,-651.08C781.12,-649.78 785.9,-648.47 790.56,-647.18"/>
</g>
<!-- membro_nome -->
<g id="node9" class="node">
<title>membro_nome</title>
<ellipse fill="none" stroke="black" cx="740.67" cy="-548.6" rx="38.58" ry="18"/>
<text text-anchor="middle" x="740.67" y="-543.93" font-family="Times,serif" font-size="14.00">nome</text>
</g>
<!-- membro&#45;&#45;membro_nome -->
<g id="edge7" class="edge">
<title>membro&#45;&#45;membro_nome</title>
<path fill="none" stroke="black" d="M738.76,-643.17C739.19,-622.16 739.88,-588 740.3,-567"/>
</g>
<!-- membro_cognome -->
<g id="node10" class="node">
<title>membro_cognome</title>
<ellipse fill="none" stroke="black" cx="843.29" cy="-554" rx="55.94" ry="18"/>
<text text-anchor="middle" x="843.29" y="-549.33" font-family="Times,serif" font-size="14.00">cognome</text>
</g>
<!-- membro&#45;&#45;membro_cognome -->
<g id="edge8" class="edge">
<title>membro&#45;&#45;membro_cognome</title>
<path fill="none" stroke="black" d="M756.19,-643.32C775.83,-623.18 807.2,-591.01 826.45,-571.27"/>
</g>
<!-- membro_ruolo -->
<g id="node11" class="node">
<title>membro_ruolo</title>
<ellipse fill="none" stroke="black" cx="795.44" cy="-499.78" rx="37" ry="18"/>
<text text-anchor="middle" x="795.44" y="-495.11" font-family="Times,serif" font-size="14.00">ruolo</text>
</g>
<!-- membro&#45;&#45;membro_ruolo -->
<g id="edge9" class="edge">
<title>membro&#45;&#45;membro_ruolo</title>
<path fill="none" stroke="black" d="M744.83,-643.33C755.84,-612.09 778.18,-548.73 789.11,-517.71"/>
</g>
<!-- Stesura -->
<g id="node45" class="node">
<title>Stesura</title>
<polygon fill="lightgray" stroke="lightgray" points="675.78,-800.15 604.85,-782.15 675.78,-764.15 746.71,-782.15 675.78,-800.15"/>
<text text-anchor="middle" x="675.78" y="-777.48" font-family="Times,serif" font-size="14.00">Stesura</text>
</g>
<!-- membro&#45;&#45;Stesura -->
<g id="edge38" class="edge">
<title>membro&#45;&#45;Stesura</title>
<path fill="none" stroke="black" d="M728.88,-679.89C716.7,-703.34 695.79,-743.62 684.18,-765.99"/>
<text text-anchor="middle" x="688.53" y="-726.89" font-family="Times,serif" font-size="14.00">(1,N)</text>
</g>
<!-- sensore -->
<g id="node12" class="node">
<title>sensore</title>
<polygon fill="lightblue" stroke="lightblue" points="343.88,-329.28 272.38,-329.28 272.38,-293.28 343.88,-293.28 343.88,-329.28"/>
<text text-anchor="middle" x="308.13" y="-306.6" font-family="Times,serif" font-size="14.00">sensore</text>
</g>
<!-- sensore_ID -->
<g id="node13" class="node">
<title>sensore_ID</title>
<ellipse fill="none" stroke="black" cx="407.93" cy="-228.6" rx="27" ry="18"/>
<text text-anchor="middle" x="407.93" y="-223.92" font-family="Times,serif" font-size="14.00">ID</text>
</g>
<!-- sensore&#45;&#45;sensore_ID -->
<g id="edge10" class="edge">
<title>sensore&#45;&#45;sensore_ID</title>
<path fill="none" stroke="black" d="M330.28,-292.93C348.54,-277.8 374.07,-256.65 390.8,-242.79"/>
</g>
<!-- sensore_posizione -->
<g id="node14" class="node">
<title>sensore_posizione</title>
<polygon fill="none" stroke="black" points="364.7,-166.11 281.95,-166.11 281.95,-130.11 364.7,-130.11 364.7,-166.11"/>
<text text-anchor="middle" x="323.33" y="-143.43" font-family="Times,serif" font-size="14.00">posizione</text>
</g>
<!-- sensore&#45;&#45;sensore_posizione -->
<g id="edge11" class="edge">
<title>sensore&#45;&#45;sensore_posizione</title>
<path fill="none" stroke="black" d="M309.85,-292.88C312.78,-261.37 318.73,-197.48 321.64,-166.19"/>
</g>
<!-- sensore_tipo -->
<g id="node18" class="node">
<title>sensore_tipo</title>
<ellipse fill="none" stroke="black" cx="183.17" cy="-377.95" rx="30.69" ry="18"/>
<text text-anchor="middle" x="183.17" y="-373.28" font-family="Times,serif" font-size="14.00">tipo</text>
</g>
<!-- sensore&#45;&#45;sensore_tipo -->
<g id="edge15" class="edge">
<title>sensore&#45;&#45;sensore_tipo</title>
<path fill="none" stroke="black" d="M273.66,-329.67C252.13,-341.16 225.01,-355.63 206.1,-365.72"/>
</g>
<!-- sensore_dataInstallazione -->
<g id="node19" class="node">
<title>sensore_dataInstallazione</title>
<ellipse fill="none" stroke="black" cx="171.97" cy="-267.26" rx="96.98" ry="18"/>
<text text-anchor="middle" x="171.97" y="-262.59" font-family="Times,serif" font-size="14.00">dataInstallazione</text>
</g>
<!-- sensore&#45;&#45;sensore_dataInstallazione -->
<g id="edge16" class="edge">
<title>sensore&#45;&#45;sensore_dataInstallazione</title>
<path fill="none" stroke="black" d="M272,-299.6C256.4,-294.56 237.91,-288.58 221.09,-283.14"/>
</g>
<!-- sensore_ultimoControllo -->
<g id="node20" class="node">
<title>sensore_ultimoControllo</title>
<ellipse fill="none" stroke="black" cx="141.11" cy="-333.05" rx="89.61" ry="18"/>
<text text-anchor="middle" x="141.11" y="-328.38" font-family="Times,serif" font-size="14.00">ultimoControllo</text>
</g>
<!-- sensore&#45;&#45;sensore_ultimoControllo -->
<g id="edge17" class="edge">
<title>sensore&#45;&#45;sensore_ultimoControllo</title>
<path fill="none" stroke="black" d="M271.89,-316C255.77,-318.1 236.15,-320.66 217.06,-323.15"/>
</g>
<!-- sensore_stato -->
<g id="node21" class="node">
<title>sensore_stato</title>
<ellipse fill="none" stroke="black" cx="260.56" cy="-223.24" rx="36.48" ry="18"/>
<text text-anchor="middle" x="260.56" y="-218.56" font-family="Times,serif" font-size="14.00">stato</text>
</g>
<!-- sensore&#45;&#45;sensore_stato -->
<g id="edge18" class="edge">
<title>sensore&#45;&#45;sensore_stato</title>
<path fill="none" stroke="black" d="M298.28,-293.03C290,-277.72 278.26,-255.99 270.08,-240.85"/>
</g>
<!-- sensore_pos_latitudine -->
<g id="node15" class="node">
<title>sensore_pos_latitudine</title>
<ellipse fill="none" stroke="black" cx="192.37" cy="-70.46" rx="59.63" ry="18"/>
<text text-anchor="middle" x="192.37" y="-65.79" font-family="Times,serif" font-size="14.00">latitudine</text>
</g>
<!-- sensore_posizione&#45;&#45;sensore_pos_latitudine -->
<g id="edge12" class="edge">
<title>sensore_posizione&#45;&#45;sensore_pos_latitudine</title>
<path fill="none" stroke="black" d="M292.29,-129.71C270.21,-116.61 240.81,-99.18 219.63,-86.62"/>
</g>
<!-- sensore_pos_altitudine -->
<g id="node17" class="node">
<title>sensore_pos_altitudine</title>
<ellipse fill="none" stroke="black" cx="428.45" cy="-45.95" rx="59.63" ry="18"/>
<text text-anchor="middle" x="428.45" y="-41.27" font-family="Times,serif" font-size="14.00">altitudine</text>
</g>
<!-- sensore_posizione&#45;&#45;sensore_pos_altitudine -->
<g id="edge14" class="edge">
<title>sensore_posizione&#45;&#45;sensore_pos_altitudine</title>
<path fill="none" stroke="black" d="M342.12,-129.84C361.49,-111.02 391.47,-81.88 410.52,-63.37"/>
</g>
<!-- sensore_pos_longitudine -->
<g id="node16" class="node">
<title>sensore_pos_longitudine</title>
<ellipse fill="none" stroke="black" cx="292.73" cy="-18" rx="68.04" ry="18"/>
<text text-anchor="middle" x="292.73" y="-13.32" font-family="Times,serif" font-size="14.00">longitudine</text>
</g>
<!-- sensore_pos_longitudine&#45;&#45;sensore_posizione -->
<g id="edge13" class="edge">
<title>sensore_pos_longitudine&#45;&#45;sensore_posizione</title>
<path fill="none" stroke="black" d="M297.05,-36.37C302.88,-61.16 313.21,-105.09 319.03,-129.84"/>
</g>
<!-- robot -->
<g id="node22" class="node">
<title>robot</title>
<polygon fill="lightblue" stroke="lightblue" points="196.55,-816.54 142.3,-816.54 142.3,-780.54 196.55,-780.54 196.55,-816.54"/>
<text text-anchor="middle" x="169.42" y="-793.86" font-family="Times,serif" font-size="14.00">robot</text>
</g>
<!-- robot_tipo -->
<g id="node24" class="node">
<title>robot_tipo</title>
<ellipse fill="none" stroke="black" cx="125.15" cy="-922.58" rx="54.89" ry="18"/>
<text text-anchor="middle" x="125.15" y="-917.9" font-family="Times,serif" font-size="14.00">tipologia</text>
</g>
<!-- robot&#45;&#45;robot_tipo -->
<g id="edge20" class="edge">
<title>robot&#45;&#45;robot_tipo</title>
<path fill="none" stroke="black" d="M162.89,-816.84C154.47,-840.43 139.92,-881.18 131.56,-904.6"/>
</g>
<!-- robot_codice -->
<g id="node23" class="node">
<title>robot_codice</title>
<ellipse fill="none" stroke="black" cx="42.79" cy="-810.29" rx="42.79" ry="18"/>
<text text-anchor="middle" x="42.79" y="-805.62" font-family="Times,serif" font-size="14.00">codice</text>
</g>
<!-- robot_codice&#45;&#45;robot -->
<g id="edge19" class="edge">
<title>robot_codice&#45;&#45;robot</title>
<path fill="none" stroke="black" d="M84.96,-806.38C103.81,-804.63 125.48,-802.62 142.16,-801.07"/>
</g>
<!-- rilevazione -->
<g id="node25" class="node">
<title>rilevazione</title>
<polygon fill="lightblue" stroke="lightblue" points="1851,-858.96 1757,-858.96 1757,-822.96 1851,-822.96 1851,-858.96"/>
<text text-anchor="middle" x="1804" y="-836.29" font-family="Times,serif" font-size="14.00">rilevazione</text>
</g>
<!-- rilevazione_ora -->
<g id="node27" class="node">
<title>rilevazione_ora</title>
<ellipse fill="none" stroke="black" cx="1923.97" cy="-864.07" rx="27.53" ry="18"/>
<text text-anchor="middle" x="1923.97" y="-859.39" font-family="Times,serif" font-size="14.00">ora</text>
</g>
<!-- rilevazione&#45;&#45;rilevazione_ora -->
<g id="edge22" class="edge">
<title>rilevazione&#45;&#45;rilevazione_ora</title>
<path fill="none" stroke="black" d="M1851.41,-850.09C1867,-853.09 1883.77,-856.33 1897.26,-858.92"/>
</g>
<!-- rilevazione_valore -->
<g id="node28" class="node">
<title>rilevazione_valore</title>
<ellipse fill="none" stroke="black" cx="1844.52" cy="-976.99" rx="42.26" ry="18"/>
<text text-anchor="middle" x="1844.52" y="-972.31" font-family="Times,serif" font-size="14.00">valore</text>
</g>
<!-- rilevazione&#45;&#45;rilevazione_valore -->
<g id="edge23" class="edge">
<title>rilevazione&#45;&#45;rilevazione_valore</title>
<path fill="none" stroke="black" d="M1809.46,-859.31C1817.24,-885.41 1831.41,-932.99 1839.15,-958.93"/>
</g>
<!-- rilevazione_data -->
<g id="node26" class="node">
<title>rilevazione_data</title>
<ellipse fill="none" stroke="black" cx="1888.32" cy="-727.3" rx="33.32" ry="18"/>
<text text-anchor="middle" x="1888.32" y="-722.63" font-family="Times,serif" font-size="14.00">data</text>
</g>
<!-- rilevazione_data&#45;&#45;rilevazione -->
<g id="edge21" class="edge">
<title>rilevazione_data&#45;&#45;rilevazione</title>
<path fill="none" stroke="black" d="M1875.88,-744.07C1860.3,-765.07 1833.71,-800.91 1817.61,-822.61"/>
</g>
<!-- anomalia -->
<g id="node29" class="node">
<title>anomalia</title>
<polygon fill="lightblue" stroke="lightblue" points="1317.15,-725.58 1236.65,-725.58 1236.65,-689.58 1317.15,-689.58 1317.15,-725.58"/>
<text text-anchor="middle" x="1276.9" y="-702.9" font-family="Times,serif" font-size="14.00">anomalia</text>
</g>
<!-- anomalia_ora -->
<g id="node31" class="node">
<title>anomalia_ora</title>
<ellipse fill="none" stroke="black" cx="1323.37" cy="-828.09" rx="27.53" ry="18"/>
<text text-anchor="middle" x="1323.37" y="-823.42" font-family="Times,serif" font-size="14.00">ora</text>
</g>
<!-- anomalia&#45;&#45;anomalia_ora -->
<g id="edge25" class="edge">
<title>anomalia&#45;&#45;anomalia_ora</title>
<path fill="none" stroke="black" d="M1283.95,-725.88C1292.79,-748.79 1307.82,-787.78 1316.55,-810.4"/>
</g>
<!-- anomalia_livello -->
<g id="node33" class="node">
<title>anomalia_livello</title>
<ellipse fill="none" stroke="black" cx="1265.52" cy="-573.72" rx="41.21" ry="18"/>
<text text-anchor="middle" x="1265.52" y="-569.05" font-family="Times,serif" font-size="14.00">livello</text>
</g>
<!-- anomalia&#45;&#45;anomalia_livello -->
<g id="edge27" class="edge">
<title>anomalia&#45;&#45;anomalia_livello</title>
<path fill="none" stroke="black" d="M1275.34,-689.24C1273.16,-663.61 1269.23,-617.35 1267.06,-591.83"/>
</g>
<!-- Risoluzione -->
<g id="node53" class="node">
<title>Risoluzione</title>
<polygon fill="lightgray" stroke="lightgray" points="1154.39,-786.5 1057.42,-768.5 1154.39,-750.5 1251.36,-768.5 1154.39,-786.5"/>
<text text-anchor="middle" x="1154.39" y="-763.82" font-family="Times,serif" font-size="14.00">Risoluzione</text>
</g>
<!-- anomalia&#45;&#45;Risoluzione -->
<g id="edge52" class="edge">
<title>anomalia&#45;&#45;Risoluzione</title>
<path fill="none" stroke="black" d="M1239.81,-726.02C1220.93,-735.4 1198.41,-746.6 1181.24,-755.14"/>
<text text-anchor="middle" x="1194.02" y="-727.28" font-family="Times,serif" font-size="14.00">(1,1)</text>
</g>
<!-- anomalia_data -->
<g id="node30" class="node">
<title>anomalia_data</title>
<ellipse fill="none" stroke="black" cx="1350.13" cy="-568.56" rx="33.32" ry="18"/>
<text text-anchor="middle" x="1350.13" y="-563.88" font-family="Times,serif" font-size="14.00">data</text>
</g>
<!-- anomalia_data&#45;&#45;anomalia -->
<g id="edge24" class="edge">
<title>anomalia_data&#45;&#45;anomalia</title>
<path fill="none" stroke="black" d="M1340.85,-586.16C1326.92,-612.61 1300.72,-662.35 1286.56,-689.23"/>
</g>
<!-- anomalia_causa -->
<g id="node32" class="node">
<title>anomalia_causa</title>
<ellipse fill="none" stroke="black" cx="1375.01" cy="-641.58" rx="39.63" ry="18"/>
<text text-anchor="middle" x="1375.01" y="-636.9" font-family="Times,serif" font-size="14.00">causa</text>
</g>
<!-- anomalia_causa&#45;&#45;anomalia -->
<g id="edge26" class="edge">
<title>anomalia_causa&#45;&#45;anomalia</title>
<path fill="none" stroke="black" d="M1352.75,-656.55C1338.39,-666.21 1319.61,-678.85 1304.33,-689.12"/>
</g>
<!-- intervento -->
<g id="node34" class="node">
<title>intervento</title>
<polygon fill="lightblue" stroke="lightblue" points="1030.27,-843.21 940.02,-843.21 940.02,-807.21 1030.27,-807.21 1030.27,-843.21"/>
<text text-anchor="middle" x="985.15" y="-820.53" font-family="Times,serif" font-size="14.00">intervento</text>
</g>
<!-- intervento_codice -->
<g id="node35" class="node">
<title>intervento_codice</title>
<ellipse fill="none" stroke="black" cx="1006.51" cy="-729.91" rx="42.79" ry="18"/>
<text text-anchor="middle" x="1006.51" y="-725.24" font-family="Times,serif" font-size="14.00">codice</text>
</g>
<!-- intervento&#45;&#45;intervento_codice -->
<g id="edge28" class="edge">
<title>intervento&#45;&#45;intervento_codice</title>
<path fill="none" stroke="black" d="M989.26,-806.83C993.05,-789.96 998.62,-765.09 1002.4,-748.23"/>
</g>
<!-- intervento_descrizione -->
<g id="node36" class="node">
<title>intervento_descrizione</title>
<polygon fill="none" stroke="black" points="1030.89,-1012.94 933.89,-1012.94 933.89,-976.94 1030.89,-976.94 1030.89,-1012.94"/>
<text text-anchor="middle" x="982.39" y="-990.26" font-family="Times,serif" font-size="14.00">descrizione</text>
</g>
<!-- intervento&#45;&#45;intervento_descrizione -->
<g id="edge29" class="edge">
<title>intervento&#45;&#45;intervento_descrizione</title>
<path fill="none" stroke="black" d="M984.85,-843.69C984.32,-876.34 983.22,-943.84 982.69,-976.47"/>
</g>
<!-- intervento_dataprefissata -->
<g id="node40" class="node">
<title>intervento_dataprefissata</title>
<ellipse fill="none" stroke="black" cx="910.62" cy="-916.54" rx="83.3" ry="18"/>
<text text-anchor="middle" x="910.62" y="-911.87" font-family="Times,serif" font-size="14.00">dataprefissata</text>
</g>
<!-- intervento&#45;&#45;intervento_dataprefissata -->
<g id="edge34" class="edge">
<title>intervento&#45;&#45;intervento_dataprefissata</title>
<path fill="none" stroke="black" d="M970.06,-843.69C957.05,-859.64 938.36,-882.55 925.42,-898.4"/>
</g>
<!-- intervento_esitointervento -->
<g id="node41" class="node">
<title>intervento_esitointervento</title>
<ellipse fill="none" stroke="black" cx="1089.43" cy="-890.53" rx="87.51" ry="18"/>
<text text-anchor="middle" x="1089.43" y="-885.85" font-family="Times,serif" font-size="14.00">esitointervento</text>
</g>
<!-- intervento&#45;&#45;intervento_esitointervento -->
<g id="edge33" class="edge">
<title>intervento&#45;&#45;intervento_esitointervento</title>
<path fill="none" stroke="black" d="M1014.47,-843.58C1029.29,-852.86 1047.18,-864.06 1061.76,-873.19"/>
</g>
<!-- Eseguito -->
<g id="node47" class="node">
<title>Eseguito</title>
<polygon fill="lightgray" stroke="lightgray" points="855.55,-769.63 777.18,-751.63 855.55,-733.63 933.92,-751.63 855.55,-769.63"/>
<text text-anchor="middle" x="855.55" y="-746.96" font-family="Times,serif" font-size="14.00">Eseguito</text>
</g>
<!-- intervento&#45;&#45;Eseguito -->
<g id="edge42" class="edge">
<title>intervento&#45;&#45;Eseguito</title>
<path fill="none" stroke="black" d="M952.78,-806.83C929.69,-793.72 899.19,-776.41 878.56,-764.69"/>
<text text-anchor="middle" x="897.67" y="-789.71" font-family="Times,serif" font-size="14.00">(1,N)</text>
</g>
<!-- intervento_descrizione_calibrazione -->
<g id="node38" class="node">
<title>intervento_descrizione_calibrazione</title>
<ellipse fill="none" stroke="black" cx="1097.58" cy="-1091.2" rx="71.73" ry="18"/>
<text text-anchor="middle" x="1097.58" y="-1086.52" font-family="Times,serif" font-size="14.00">calibrazione</text>
</g>
<!-- intervento_descrizione&#45;&#45;intervento_descrizione_calibrazione -->
<g id="edge31" class="edge">
<title>intervento_descrizione&#45;&#45;intervento_descrizione_calibrazione</title>
<path fill="none" stroke="black" d="M1004.33,-1013.27C1025.09,-1030.62 1056.03,-1056.48 1076.5,-1073.58"/>
</g>
<!-- intervento_descrizione_riparazione -->
<g id="node37" class="node">
<title>intervento_descrizione_riparazione</title>
<ellipse fill="none" stroke="black" cx="1010.9" cy="-1136.3" rx="68.04" ry="18"/>
<text text-anchor="middle" x="1010.9" y="-1131.63" font-family="Times,serif" font-size="14.00">riparazione</text>
</g>
<!-- intervento_descrizione_riparazione&#45;&#45;intervento_descrizione -->
<g id="edge30" class="edge">
<title>intervento_descrizione_riparazione&#45;&#45;intervento_descrizione</title>
<path fill="none" stroke="black" d="M1007.24,-1118.11C1001.76,-1090.97 991.52,-1040.16 986.05,-1013.06"/>
</g>
<!-- intervento_descrizione_sostituzione -->
<g id="node39" class="node">
<title>intervento_descrizione_sostituzione</title>
<ellipse fill="none" stroke="black" cx="862.68" cy="-1098.63" rx="71.73" ry="18"/>
<text text-anchor="middle" x="862.68" y="-1093.96" font-family="Times,serif" font-size="14.00">sostituzione</text>
</g>
<!-- intervento_descrizione_sostituzione&#45;&#45;intervento_descrizione -->
<g id="edge32" class="edge">
<title>intervento_descrizione_sostituzione&#45;&#45;intervento_descrizione</title>
<path fill="none" stroke="black" d="M882.99,-1081.04C904.73,-1062.2 939.09,-1032.45 961.18,-1013.31"/>
</g>
<!-- report -->
<g id="node42" class="node">
<title>report</title>
<polygon fill="lightblue" stroke="lightblue" points="579.46,-838.22 518.46,-838.22 518.46,-802.22 579.46,-802.22 579.46,-838.22"/>
<text text-anchor="middle" x="548.96" y="-815.54" font-family="Times,serif" font-size="14.00">report</text>
</g>
<!-- report_statomissione -->
<g id="node43" class="node">
<title>report_statomissione</title>
<ellipse fill="none" stroke="black" cx="485.67" cy="-951.88" rx="36.48" ry="18"/>
<text text-anchor="middle" x="485.67" y="-947.21" font-family="Times,serif" font-size="14.00">stato</text>
</g>
<!-- report&#45;&#45;report_statomissione -->
<g id="edge35" class="edge">
<title>report&#45;&#45;report_statomissione</title>
<path fill="none" stroke="black" d="M540.16,-838.52C528,-863.82 506.2,-909.16 494.19,-934.15"/>
</g>
<!-- Resoconto&#45;&#45;report -->
<g id="edge37" class="edge">
<title>Resoconto&#45;&#45;report</title>
<path fill="none" stroke="black" d="M489.74,-733.71C502.39,-752.18 523.14,-782.49 536.42,-801.89"/>
<text text-anchor="middle" x="496.58" y="-771.75" font-family="Times,serif" font-size="14.00">(1,1)</text>
</g>
<!-- Stesura&#45;&#45;report -->
<g id="edge39" class="edge">
<title>Stesura&#45;&#45;report</title>
<path fill="none" stroke="black" d="M642.46,-792.15C623.09,-797.97 598.84,-805.25 579.89,-810.94"/>
<text text-anchor="middle" x="629.17" y="-805.5" font-family="Times,serif" font-size="14.00">(1,N)</text>
</g>
<!-- Partecipazione&#45;&#45;membro -->
<g id="edge41" class="edge">
<title>Partecipazione&#45;&#45;membro</title>
<path fill="none" stroke="black" d="M636.15,-629.91C656.36,-636.17 680.76,-643.72 700.64,-649.88"/>
<text text-anchor="middle" x="650.4" y="-643.85" font-family="Times,serif" font-size="14.00">(1,N)</text>
</g>
<!-- Eseguito&#45;&#45;membro -->
<g id="edge43" class="edge">
<title>Eseguito&#45;&#45;membro</title>
<path fill="none" stroke="black" d="M837.24,-737.56C817.04,-722.03 784.44,-696.97 762.24,-679.91"/>
<text text-anchor="middle" x="781.74" y="-712.68" font-family="Times,serif" font-size="14.00">(0,N)</text>
</g>
<!-- Risorsa_1&#45;&#45;sensore -->
<g id="edge45" class="edge">
<title>Risorsa_1&#45;&#45;sensore</title>
<path fill="none" stroke="black" d="M361.99,-415.11C350.44,-392.84 329.71,-352.88 317.62,-329.56"/>
<text text-anchor="middle" x="321.8" y="-376.28" font-family="Times,serif" font-size="14.00">(1,N)</text>
</g>
<!-- Risorsa_2&#45;&#45;robot -->
<g id="edge47" class="edge">
<title>Risorsa_2&#45;&#45;robot</title>
<path fill="none" stroke="black" d="M244.08,-727.25C228.7,-741.93 205.26,-764.31 188.76,-780.07"/>
<text text-anchor="middle" x="198.42" y="-757.61" font-family="Times,serif" font-size="14.00">(1,N)</text>
</g>
<!-- Analisi -->
<g id="node50" class="node">
<title>Analisi</title>
<polygon fill="lightgray" stroke="lightgray" points="1683.86,-838.34 1620.37,-820.34 1683.86,-802.34 1747.36,-820.34 1683.86,-838.34"/>
<text text-anchor="middle" x="1683.86" y="-815.67" font-family="Times,serif" font-size="14.00">Analisi</text>
</g>
<!-- Analisi&#45;&#45;rilevazione -->
<g id="edge49" class="edge">
<title>Analisi&#45;&#45;rilevazione</title>
<path fill="none" stroke="black" d="M1724.54,-827.32C1734.88,-829.1 1746.09,-831.02 1756.73,-832.85"/>
<text text-anchor="middle" x="1724.13" y="-834.04" font-family="Times,serif" font-size="14.00">(1,1)</text>
</g>
<!-- sensori -->
<g id="node51" class="node">
<title>sensori</title>
<ellipse fill="none" stroke="black" cx="1564.73" cy="-802.04" rx="47.53" ry="18"/>
<text text-anchor="middle" x="1564.73" y="-797.36" font-family="Times,serif" font-size="14.00">sensori</text>
</g>
<!-- sensori&#45;&#45;Analisi -->
<g id="edge48" class="edge">
<title>sensori&#45;&#45;Analisi</title>
<path fill="none" stroke="black" d="M1609.09,-808.85C1619.81,-810.5 1631.23,-812.26 1641.84,-813.89"/>
<text text-anchor="middle" x="1634.47" y="-798.07" font-family="Times,serif" font-size="14.00">(1,N)</text>
</g>
<!-- Malfunzionamenti -->
<g id="node52" class="node">
<title>Malfunzionamenti</title>
<polygon fill="lightgray" stroke="lightgray" points="1403.34,-776.01 1259.49,-758.01 1403.34,-740.01 1547.19,-758.01 1403.34,-776.01"/>
<text text-anchor="middle" x="1403.34" y="-753.34" font-family="Times,serif" font-size="14.00">Malfunzionamenti</text>
</g>
<!-- sensori&#45;&#45;Malfunzionamenti -->
<g id="edge50" class="edge">
<title>sensori&#45;&#45;Malfunzionamenti</title>
<path fill="none" stroke="black" d="M1525.66,-791.38C1502.81,-785.15 1473.82,-777.24 1449.79,-770.68"/>
<text text-anchor="middle" x="1467.85" y="-784.98" font-family="Times,serif" font-size="14.00">(1,N,)</text>
</g>
<!-- Malfunzionamenti&#45;&#45;anomalia -->
<g id="edge51" class="edge">
<title>Malfunzionamenti&#45;&#45;anomalia</title>
<path fill="none" stroke="black" d="M1368.12,-743.96C1352.33,-737.67 1333.63,-730.21 1317.28,-723.69"/>
<text text-anchor="middle" x="1359.2" y="-720.52" font-family="Times,serif" font-size="14.00">(0,1)</text>
</g>
<!-- Risoluzione&#45;&#45;intervento -->
<g id="edge53" class="edge">
<title>Risoluzione&#45;&#45;intervento</title>
<path fill="none" stroke="black" d="M1118.91,-780.38C1093.22,-788.99 1058.29,-800.7 1030.57,-809.99"/>
<text text-anchor="middle" x="1056.74" y="-799.14" font-family="Times,serif" font-size="14.00">(1,N)</text>
</g>
</g>
</svg>
